# xmcd
#
# Track frame offsets:
# 150
# 15175
# 28137
# 45816
# 63501
# 77115
# 94610
# 111916
# 130141
# 149469
# 168035
# 183405
# 195431
#
# Disc length: 2854 seconds
#
#
# Revision: 1
# Processed by: cddbd v1.5.1PL2 Copyright (c) Steve Scherf et al.
# Submitted via: FreeRIP 2.50 
#
DISCID=9c0b240d
DTITLE=Hot Apple Pie - Hot Apple Pie
DYEAR=2005
DGENRE=Country
TTITLE0=Hillbillies
TTITLE1=We're Makin' Up
TTITLE2=California King
TTITLE3=Easy Does It
TTITLE4=The Good Life
TTITLE5=Why Can't I Get To You
TTITLE6=The Shape I'm In
TTITLE7=Slowin' Down The Fall (Guest Star Willie Nelson)
TTITLE8=Redneck Revolution
TTITLE9=Annabelle (Arkansas Is Callin' You)
TTITLE10=Everybody Wants To Dance With My Baby
TTITLE11=I Should've Seen Her Leavin' Comin'
TTITLE12=All Together Now
EXTD=
EXTT0=
EXTT1=
EXTT2=
EXTT3=
EXTT4=
EXTT5=
EXTT6=
EXTT7=
EXTT8=
EXTT9=
EXTT10=
EXTT11=
EXTT12=
PLAYORDER=
